<?xml version="1.0" encoding="UTF-8" standalone="no"?>
<!-- Created with Inkscape (http://www.inkscape.org/) -->

<svg
   xmlns:dc="http://purl.org/dc/elements/1.1/"
   xmlns:cc="http://creativecommons.org/ns#"
   xmlns:rdf="http://www.w3.org/1999/02/22-rdf-syntax-ns#"
   xmlns:svg="http://www.w3.org/2000/svg"
   xmlns="http://www.w3.org/2000/svg"
   xmlns:sodipodi="http://sodipodi.sourceforge.net/DTD/sodipodi-0.dtd"
   xmlns:inkscape="http://www.inkscape.org/namespaces/inkscape"
   width="99.367554mm"
   height="18.375233mm"
   viewBox="0 0 99.36755 18.375233"
   version="1.1"
   id="svg8"
   inkscape:version="0.92.3 (2405546, 2018-03-11)"
   sodipodi:docname="speedychain-logo.svg"
   inkscape:export-filename="C:\Users\Eduardo Arruda\Documents\OneDrive - PUCRS - BR\Doutorado\CONSEG\Identidade Visual\speedychain-logo.png"
   inkscape:export-xdpi="299.9581"
   inkscape:export-ydpi="299.9581">
  <defs
     id="defs2">
    <filter
       style="color-interpolation-filters:sRGB"
       inkscape:label="Cross Blur"
       id="filter9887"
       x="-2"
       width="2.5"
       y="0"
       height="1">
      <feColorMatrix
         in="SourceGraphic"
         values="1 0 0 0 0 0 1 0 0 0 0 0 1 0 0 -0.2125 -0.7154 -0.0721 1 0 "
         result="colormatrix"
         id="feColorMatrix9877" />
      <feComposite
         in="SourceGraphic"
         in2="colormatrix"
         operator="xor"
         result="composite"
         id="feComposite9879" />
      <feGaussianBlur
         stdDeviation="4 0.29999999999999999"
         result="blur1"
         id="feGaussianBlur9881" />
      <feGaussianBlur
         in="composite"
         stdDeviation="6 0.19999999999999996"
         result="blur2"
         id="feGaussianBlur9883" />
      <feBlend
         in="blur2"
         in2="blur1"
         mode="darken"
         result="blend"
         id="feBlend9885" />
    </filter>
    <linearGradient
       gradientTransform="translate(311.38808,661.36976)"
       id="SVGID_1_"
       gradientUnits="userSpaceOnUse"
       x1="324.46881"
       y1="11.2485"
       x2="255.70551"
       y2="103.2204">
      <stop
         offset="0"
         style="stop-color:#FFFFFF"
         id="stop1443" />
      <stop
         offset="0.4835"
         style="stop-color:#FFF200"
         id="stop1445" />
      <stop
         offset="1"
         style="stop-color:#ED1C24"
         id="stop1447" />
    </linearGradient>
    <linearGradient
       gradientTransform="translate(311.38808,661.36976)"
       id="SVGID_2_"
       gradientUnits="userSpaceOnUse"
       x1="398.1221"
       y1="50.902802"
       x2="289.96811"
       y2="168.3773">
      <stop
         offset="0"
         style="stop-color:#FFFFFF"
         id="stop1464" />
      <stop
         offset="0.4835"
         style="stop-color:#FFF200"
         id="stop1466" />
      <stop
         offset="1"
         style="stop-color:#ED1C24"
         id="stop1468" />
    </linearGradient>
    <linearGradient
       gradientTransform="translate(311.38808,661.36976)"
       id="SVGID_3_"
       gradientUnits="userSpaceOnUse"
       x1="328.1748"
       y1="160.1606"
       x2="240.9735"
       y2="195.1925">
      <stop
         offset="0"
         style="stop-color:#FFFFFF"
         id="stop1473" />
      <stop
         offset="0.4835"
         style="stop-color:#FFF200"
         id="stop1475" />
      <stop
         offset="1"
         style="stop-color:#ED1C24"
         id="stop1477" />
    </linearGradient>
    <linearGradient
       gradientTransform="translate(311.38808,661.36976)"
       id="SVGID_4_"
       gradientUnits="userSpaceOnUse"
       x1="317.95609"
       y1="70.477501"
       x2="159.0531"
       y2="177.9707">
      <stop
         offset="0"
         style="stop-color:#FFFFFF"
         id="stop1482" />
      <stop
         offset="0.4835"
         style="stop-color:#FFF200"
         id="stop1484" />
      <stop
         offset="1"
         style="stop-color:#ED1C24"
         id="stop1486" />
    </linearGradient>
    <linearGradient
       gradientTransform="translate(311.38808,661.36976)"
       id="SVGID_5_"
       gradientUnits="userSpaceOnUse"
       x1="164.7256"
       y1="64.575203"
       x2="78.826797"
       y2="119.1571">
      <stop
         offset="0"
         style="stop-color:#FFFFFF"
         id="stop1491" />
      <stop
         offset="0.4835"
         style="stop-color:#FFF200"
         id="stop1493" />
      <stop
         offset="1"
         style="stop-color:#ED1C24"
         id="stop1495" />
    </linearGradient>
    <linearGradient
       gradientTransform="translate(311.38808,661.36976)"
       id="SVGID_6_"
       gradientUnits="userSpaceOnUse"
       x1="286.48441"
       y1="104.0166"
       x2="75.407402"
       y2="278.9805">
      <stop
         offset="0"
         style="stop-color:#FFFFFF"
         id="stop1500" />
      <stop
         offset="0.4835"
         style="stop-color:#FFF200"
         id="stop1502" />
      <stop
         offset="1"
         style="stop-color:#ED1C24"
         id="stop1504" />
    </linearGradient>
    <linearGradient
       gradientTransform="translate(311.38808,661.36976)"
       id="SVGID_7_"
       gradientUnits="userSpaceOnUse"
       x1="374.7988"
       y1="2.2056"
       x2="309.32861"
       y2="89.773102">
      <stop
         offset="0"
         style="stop-color:#FFFFFF"
         id="stop1509" />
      <stop
         offset="0.4835"
         style="stop-color:#FFF200"
         id="stop1511" />
      <stop
         offset="1"
         style="stop-color:#ED1C24"
         id="stop1513" />
    </linearGradient>
    <linearGradient
       gradientTransform="matrix(-1.6002714,1.1551087,-1.1261256,-1.6414582,843.10948,256.64719)"
       y2="103.2204"
       x2="255.70551"
       y1="11.2485"
       x1="324.46881"
       gradientUnits="userSpaceOnUse"
       id="SVGID_1_-3">
      <stop
         id="stop1443-5"
         style="stop-color:#FFFFFF"
         offset="0" />
      <stop
         id="stop1445-4"
         style="stop-color:#FFF200"
         offset="0.4835" />
      <stop
         id="stop1447-1"
         style="stop-color:#ED1C24"
         offset="1" />
    </linearGradient>
    <linearGradient
       gradientTransform="matrix(0.26458331,-1.9790597e-8,-3.2003424e-8,0.26458338,1.865077e-5,-3.3142375e-5)"
       y2="168.3773"
       x2="289.96811"
       y1="50.902802"
       x1="398.1221"
       gradientUnits="userSpaceOnUse"
       id="SVGID_2_-9">
      <stop
         id="stop1464-4"
         style="stop-color:#FFFFFF"
         offset="0" />
      <stop
         id="stop1466-9"
         style="stop-color:#FFF200"
         offset="0.4835" />
      <stop
         id="stop1468-9"
         style="stop-color:#ED1C24"
         offset="1" />
    </linearGradient>
    <linearGradient
       gradientTransform="matrix(0.26458331,-1.9790597e-8,-3.2003424e-8,0.26458338,1.865077e-5,-3.3142375e-5)"
       y2="195.1925"
       x2="240.9735"
       y1="160.1606"
       x1="328.1748"
       gradientUnits="userSpaceOnUse"
       id="SVGID_3_-7">
      <stop
         id="stop1473-4"
         style="stop-color:#FFFFFF"
         offset="0" />
      <stop
         id="stop1475-5"
         style="stop-color:#FFF200"
         offset="0.4835" />
      <stop
         id="stop1477-4"
         style="stop-color:#ED1C24"
         offset="1" />
    </linearGradient>
    <linearGradient
       gradientTransform="matrix(0.26458331,-1.9790597e-8,-3.2003424e-8,0.26458338,1.865077e-5,-3.3142375e-5)"
       y2="177.9707"
       x2="159.0531"
       y1="70.477501"
       x1="317.95609"
       gradientUnits="userSpaceOnUse"
       id="SVGID_4_-5">
      <stop
         id="stop1482-4"
         style="stop-color:#FFFFFF"
         offset="0" />
      <stop
         id="stop1484-6"
         style="stop-color:#FFF200"
         offset="0.4835" />
      <stop
         id="stop1486-4"
         style="stop-color:#ED1C24"
         offset="1" />
    </linearGradient>
    <linearGradient
       gradientTransform="matrix(0.26458331,-1.9790597e-8,-3.2003424e-8,0.26458338,1.865077e-5,-3.3142375e-5)"
       y2="119.1571"
       x2="78.826797"
       y1="64.575203"
       x1="164.7256"
       gradientUnits="userSpaceOnUse"
       id="SVGID_5_-7">
      <stop
         id="stop1491-0"
         style="stop-color:#FFFFFF"
         offset="0" />
      <stop
         id="stop1493-7"
         style="stop-color:#FFF200"
         offset="0.4835" />
      <stop
         id="stop1495-0"
         style="stop-color:#ED1C24"
         offset="1" />
    </linearGradient>
    <linearGradient
       gradientTransform="matrix(0.26458331,-1.9790597e-8,-3.2003424e-8,0.26458338,1.865077e-5,-3.3142375e-5)"
       y2="278.9805"
       x2="75.407402"
       y1="104.0166"
       x1="286.48441"
       gradientUnits="userSpaceOnUse"
       id="SVGID_6_-8">
      <stop
         id="stop1500-5"
         style="stop-color:#FFFFFF"
         offset="0" />
      <stop
         id="stop1502-0"
         style="stop-color:#FFF200"
         offset="0.4835" />
      <stop
         id="stop1504-7"
         style="stop-color:#ED1C24"
         offset="1" />
    </linearGradient>
    <linearGradient
       gradientTransform="matrix(0.26458331,-1.9790597e-8,-3.2003424e-8,0.26458338,1.865077e-5,-3.3142375e-5)"
       y2="89.773102"
       x2="309.32861"
       y1="2.2056"
       x1="374.7988"
       gradientUnits="userSpaceOnUse"
       id="SVGID_7_-0">
      <stop
         id="stop1509-7"
         style="stop-color:#FFFFFF"
         offset="0" />
      <stop
         id="stop1511-1"
         style="stop-color:#FFF200"
         offset="0.4835" />
      <stop
         id="stop1513-8"
         style="stop-color:#ED1C24"
         offset="1" />
    </linearGradient>
    <linearGradient
       y2="168.3773"
       x2="289.96811"
       y1="50.902802"
       x1="398.1221"
       gradientUnits="userSpaceOnUse"
       id="linearGradient1737">
      <stop
         id="stop1731"
         style="stop-color:#FFFFFF"
         offset="0" />
      <stop
         id="stop1733"
         style="stop-color:#FFF200"
         offset="0.4835" />
      <stop
         id="stop1735"
         style="stop-color:#ED1C24"
         offset="1" />
    </linearGradient>
    <linearGradient
       y2="195.1925"
       x2="240.9735"
       y1="160.1606"
       x1="328.1748"
       gradientUnits="userSpaceOnUse"
       id="linearGradient1746">
      <stop
         id="stop1740"
         style="stop-color:#FFFFFF"
         offset="0" />
      <stop
         id="stop1742"
         style="stop-color:#FFF200"
         offset="0.4835" />
      <stop
         id="stop1744"
         style="stop-color:#ED1C24"
         offset="1" />
    </linearGradient>
    <linearGradient
       y2="177.9707"
       x2="159.0531"
       y1="70.477501"
       x1="317.95609"
       gradientUnits="userSpaceOnUse"
       id="linearGradient1755">
      <stop
         id="stop1749"
         style="stop-color:#FFFFFF"
         offset="0" />
      <stop
         id="stop1751"
         style="stop-color:#FFF200"
         offset="0.4835" />
      <stop
         id="stop1753"
         style="stop-color:#ED1C24"
         offset="1" />
    </linearGradient>
    <linearGradient
       y2="119.1571"
       x2="78.826797"
       y1="64.575203"
       x1="164.7256"
       gradientUnits="userSpaceOnUse"
       id="linearGradient1764">
      <stop
         id="stop1758"
         style="stop-color:#FFFFFF"
         offset="0" />
      <stop
         id="stop1760"
         style="stop-color:#FFF200"
         offset="0.4835" />
      <stop
         id="stop1762"
         style="stop-color:#ED1C24"
         offset="1" />
    </linearGradient>
    <linearGradient
       y2="278.9805"
       x2="75.407402"
       y1="104.0166"
       x1="286.48441"
       gradientUnits="userSpaceOnUse"
       id="linearGradient1773">
      <stop
         id="stop1767"
         style="stop-color:#FFFFFF"
         offset="0" />
      <stop
         id="stop1769"
         style="stop-color:#FFF200"
         offset="0.4835" />
      <stop
         id="stop1771"
         style="stop-color:#ED1C24"
         offset="1" />
    </linearGradient>
    <linearGradient
       y2="89.773102"
       x2="309.32861"
       y1="2.2056"
       x1="374.7988"
       gradientUnits="userSpaceOnUse"
       id="linearGradient1782">
      <stop
         id="stop1776"
         style="stop-color:#FFFFFF"
         offset="0" />
      <stop
         id="stop1778"
         style="stop-color:#FFF200"
         offset="0.4835" />
      <stop
         id="stop1780"
         style="stop-color:#ED1C24"
         offset="1" />
    </linearGradient>
  </defs>
  <sodipodi:namedview
     id="base"
     pagecolor="#ffffff"
     bordercolor="#666666"
     borderopacity="1.0"
     inkscape:pageopacity="0.0"
     inkscape:pageshadow="2"
     inkscape:zoom="2"
     inkscape:cx="258.81448"
     inkscape:cy="46.545845"
     inkscape:document-units="mm"
     inkscape:current-layer="layer2"
     showgrid="false"
     inkscape:snap-text-baseline="false"
     inkscape:window-width="1280"
     inkscape:window-height="667"
     inkscape:window-x="-8"
     inkscape:window-y="-8"
     inkscape:window-maximized="1"
     fit-margin-top="0"
     fit-margin-left="0"
     fit-margin-right="0"
     fit-margin-bottom="0"
     showguides="false"
     inkscape:snap-grids="false"
     inkscape:measure-start="179.062,19.746"
     inkscape:measure-end="179.075,51.442" />
  <metadata
     id="metadata5">
    <rdf:RDF>
      <cc:Work
         rdf:about="">
        <dc:format>image/svg+xml</dc:format>
        <dc:type
           rdf:resource="http://purl.org/dc/dcmitype/StillImage" />
        <dc:title />
      </cc:Work>
    </rdf:RDF>
  </metadata>
  <g
     inkscape:groupmode="layer"
     id="layer2"
     inkscape:label="Letras"
     style="display:inline"
     transform="translate(-6.4324248,-0.21956039)">
    <g
       id="g5655"
       transform="translate(0,0.00445675)">
      <path
         sodipodi:nodetypes="zczcccccccccscczczczczzcccczsczccszcccssccszczczzccscssczz"
         inkscape:connector-curvature="0"
         id="path983-9"
         d="m 48.018345,1.2148693 c -0.683436,0.1255169 -3.981546,0.855254 -5.132129,-0.1098807 0.933532,1.2015854 2.147156,1.2983015 3.98824,1.3775866 1.841083,0.079285 4.200578,-0.4833385 3.120301,1.3819659 C 48.933344,4.2839793 45.462913,3.313605 44.557163,5.7504363 44.434981,3.787265 40.719511,2.3040394 38.636039,2.3454809 39.736714,3.0440599 39.336722,3.3465217 39.16103,3.4818782 36.990113,4.4287963 35.986828,1.2569681 33.839699,1.319499 32.99915,1.0360437 30.331791,1.631166 30.528841,1.9298384 c 1.580081,-0.398636 5.040301,0.2152837 4.664031,1.7115339 -1.975885,0.2415589 -7.213372,-2.3998741 -9.12776,-1.4033416 -1.219856,0.4673658 -2.041826,0.9860114 -4.369132,0.080795 3.411944,1.8882036 2.899354,0.6343174 4.981973,1.1919214 0.560073,0.1499549 0.788383,0.5654266 0.532003,0.5852681 -0.71921,0.1974479 -1.845046,-0.3383972 -2.663298,1.4791 C 23.88376,4.1409993 18.563867,3.0864225 16.707479,3.6099267 14.851091,4.133431 15.332927,4.8175167 13.878187,4.6937452 14.264992,5.064515 14.485238,5.3356465 15.602123,5.0555688 16.719009,4.7754911 15.999809,6.6488013 14.817706,5.8766771 12.849174,4.9904997 11.523854,6.3204225 11.211925,6.5747382 10.899996,6.8290539 10.237477,7.7330894 8.8938168,8.305901 9.1757726,8.374438 10.126464,8.1958003 10.671149,7.9139981 11.215833,7.6321958 13.613142,6.5319623 13.639128,7.652932 13.665118,8.7739016 12.32114,8.7584661 11.466317,8.5786736 11.659634,8.8596581 12.303691,9.2132831 12.948635,9.1757209 14.477226,8.8126105 14.367246,10.854041 12.57062,10.086383 10.513721,8.9112945 8.2871097,9.3399028 6.4324248,10.532948 7.6988935,9.9426598 8.732193,9.8472385 9.8572644,10.091224 c 1.1250716,0.243986 1.6667376,0.898323 1.2926336,1.723392 -0.309366,0.682292 -1.7681608,0.59301 -2.1969029,0.241187 0.4525342,0.754074 1.1205319,1.321099 2.0760499,1.318445 0.955518,-0.0027 2.838364,-1.99889 4.128995,0.03977 0.338298,1.662935 -3.728004,-0.614189 -1.604545,0.908173 2.310374,1.632875 5.747405,-0.50465 6.400684,1.055972 0.174148,0.416023 0.251526,0.894526 -0.17413,1.129741 -0.425656,0.235216 -2.266621,-0.541636 -4.150856,0.426575 3.205786,-0.234643 2.917792,1.372341 5.10338,1.631853 6.145961,0.366407 5.033792,-3.558833 8.101976,-5.160958 0.09946,0.502269 0.372762,1.28241 1.250752,1.327396 0.430937,0.02208 2.966423,0.0263 4.356799,0.02666 0.56902,1.47e-4 1.190021,-0.403618 1.17749,-1.090627 0.322111,1.071754 0.947047,1.0828 1.829892,1.078247 0.07583,0.152957 -0.464664,1.033148 -1.517597,1.209628 -0.84218,0.141156 -1.616954,-0.150441 -2.568984,-0.283264 -0.952031,-0.132823 -1.881912,-0.650615 -3.993038,0.854811 2.002822,-1.00263 3.131579,1.209576 6.530521,1.087399 3.398942,-0.122177 4.681628,-1.2278 6.343211,-3.730665 0.246181,1.077379 4.691792,0.572336 5.584321,0.776418 0.89253,0.204083 0.914382,1.264206 -0.54754,1.131572 -1.461922,-0.132633 -1.769212,1.0521 -4.391205,0.536651 1.547721,0.875148 2.583607,2.095745 4.963959,2.039147 0.871605,0.01622 1.401869,-0.01234 1.659051,-0.36173 C 50.374877,16.835006 57.819557,6.6868697 58.315453,5.8680033 58.624942,5.4196395 58.565985,4.8569699 58.016192,4.3438259 57.769994,4.1140399 57.381058,3.9260642 56.615596,3.9821062 55.346838,4.0749963 53.23905,4.3964911 52.515342,3.7372243 54.55423,1.358827 53.44623,-0.14215361 51.528217,0.28870916 49.610204,0.71957192 48.701782,1.0893524 48.018345,1.2148693 Z"
         style="fill:#ff0000;stroke-width:0.26458332" />
      <g
         style="fill:#ffff00;fill-opacity:1;stroke-width:0.92712569"
         transform="matrix(1.0786024,0,0,1.0786024,-3.9945287,-0.81499185)"
         id="g5642">
        <path
           inkscape:connector-curvature="0"
           id="path849-3-3"
           d="m 24.655963,6.886664 c -0.742077,-0.44828 -1.832492,-0.70635 -2.600406,-0.20739 -0.527624,0.37137 -0.901313,1.3753191 -0.168695,1.7178891 0.628574,0.49633 1.328533,0.91171 1.901001,1.47207 0.647205,0.8948599 0.04314,2.0940099 -0.617817,2.7990899 -0.787172,0.89388 -2.059944,1.09338 -3.167356,0.78797 -0.83746,-0.0555 -2.44106,-0.79582 -1.236131,-1.61736 0.930071,0.1275 1.88779,0.70014 2.916445,0.55226 0.821309,-0.0375 1.753934,-1.2588 0.954652,-1.90124 -0.655338,-0.5209199 -1.394934,-0.9482799 -1.98469,-1.5424899 -0.63535,-0.9744702 -0.02722,-2.2802791 0.758347,-2.9774791 1.114077,-1.07138 3.028509,-0.94522 4.132876,0.0605 0.211478,0.47346 -0.385287,1.28623 -0.888226,0.85613 z"
           style="font-style:italic;font-variant:normal;font-weight:normal;font-stretch:normal;font-size:17.40464592px;line-height:1.25;font-family:ISOCTEUR;-inkscape-font-specification:'ISOCTEUR, Italic';font-variant-ligatures:normal;font-variant-caps:normal;font-variant-numeric:normal;font-feature-settings:normal;text-align:start;letter-spacing:0px;word-spacing:0px;writing-mode:lr-tb;text-anchor:start;fill:#ffff00;fill-opacity:1;stroke:none;stroke-width:0.87273532" />
        <path
           inkscape:connector-curvature="0"
           id="path853"
           style="font-style:italic;font-variant:normal;font-weight:normal;font-stretch:normal;font-size:17.40464592px;line-height:1.25;font-family:ISOCTEUR;-inkscape-font-specification:'ISOCTEUR, Italic';font-variant-ligatures:normal;font-variant-caps:normal;font-variant-numeric:normal;font-feature-settings:normal;text-align:start;letter-spacing:0px;word-spacing:0px;writing-mode:lr-tb;text-anchor:start;fill:#ffff00;fill-opacity:1;stroke:none;stroke-width:0.87273532"
           d="m 36.737184,8.2121119 q 0.165633,-0.389301 0.223172,-0.6609069 0.239746,-1.1316909 -0.984971,-1.1316909 -1.542235,0 -2.330232,1.7925978 L 33.382487,8.809644 h 3.099591 z m 1.035716,0 -0.780436,1.7925971 h -4.127747 l -0.517771,1.195065 q -0.102787,0.235391 -0.144982,0.434569 -0.161109,0.760495 0.647809,0.760495 h 2.449432 q 0.498959,0 0.372373,0.597533 -0.126586,0.597532 -0.625545,0.597532 h -2.714032 q -0.650158,0 -0.999962,-0.561317 -0.342245,-0.56132 -0.1773,-1.339922 0.0537,-0.253499 0.15649,-0.48889 l 1.298207,-2.9876621 q 0.696717,-1.6115271 1.59848,-2.2995951 0.901763,-0.688068 2.292799,-0.688068 1.330556,0 1.518916,1.4304561 0.05722,0.4436242 -0.0406,0.9053531 -0.07288,0.3440329 -0.206134,0.6518539 z" />
        <path
           inkscape:connector-curvature="0"
           id="path855"
           style="font-style:italic;font-variant:normal;font-weight:normal;font-stretch:normal;font-size:17.40464592px;line-height:1.25;font-family:ISOCTEUR;-inkscape-font-specification:'ISOCTEUR, Italic';font-variant-ligatures:normal;font-variant-caps:normal;font-variant-numeric:normal;font-feature-settings:normal;text-align:start;letter-spacing:0px;word-spacing:0px;writing-mode:lr-tb;text-anchor:start;fill:#ffff00;fill-opacity:1;stroke:none;stroke-width:0.87273532"
           d="m 42.951766,8.2121119 q 0.165633,-0.389301 0.223172,-0.6609069 0.239746,-1.1316909 -0.98497,-1.1316909 -1.542235,0 -2.330233,1.7925978 L 39.59707,8.809644 h 3.09959 z m 1.035717,0 -0.780436,1.7925971 H 39.0793 l -0.517772,1.195065 q -0.102787,0.235391 -0.144982,0.434569 -0.161109,0.760495 0.647808,0.760495 h 2.449433 q 0.498959,0 0.372373,0.597533 -0.126586,0.597532 -0.625545,0.597532 h -2.71403 q -0.650158,0 -0.999963,-0.561317 -0.342244,-0.56132 -0.177299,-1.339922 0.0537,-0.253499 0.15649,-0.48889 l 1.298206,-2.9876621 q 0.696718,-1.6115271 1.598481,-2.2995951 0.901763,-0.688068 2.292799,-0.688068 1.330555,0 1.518916,1.4304561 0.05722,0.4436242 -0.0406,0.9053531 -0.07288,0.3440329 -0.206124,0.6518539 z" />
        <path
           inkscape:connector-curvature="0"
           id="path857"
           style="font-style:italic;font-variant:normal;font-weight:normal;font-stretch:normal;font-size:17.40464592px;line-height:1.25;font-family:ISOCTEUR;-inkscape-font-specification:'ISOCTEUR, Italic';font-variant-ligatures:normal;font-variant-caps:normal;font-variant-numeric:normal;font-feature-settings:normal;text-align:start;letter-spacing:0px;word-spacing:0px;writing-mode:lr-tb;text-anchor:start;fill:#ffff00;fill-opacity:1;stroke:none;stroke-width:0.87273532"
           d="m 47.376889,13.589903 h -2.714032 q -0.665278,0 -1.007523,-0.561317 -0.334685,-0.56132 -0.167822,-1.348976 0.05178,-0.244445 0.154572,-0.479836 l 1.560872,-3.585195 q 0.561549,-1.2946552 1.298464,-1.8469192 0.712317,-0.543211 1.808512,-0.543211 h 2.071433 l 1.361054,-3.1415719 q 0.1847,-0.443623 0.577818,-0.443623 0.49896,0 0.374291,0.58848 -0.02302,0.108642 -0.05156,0.172017 L 47.956626,13.137227 q -0.201737,0.452676 -0.579737,0.452676 z m 0.415274,-7.1703889 q -1.043278,0 -1.561049,1.1950649 l -1.560873,3.585195 q -0.102787,0.235391 -0.143064,0.425516 -0.163027,0.769548 0.653451,0.769548 h 2.071434 l 2.603973,-5.9753239 z" />
        <path
           inkscape:connector-curvature="0"
           id="path859"
           style="font-style:italic;font-variant:normal;font-weight:normal;font-stretch:normal;font-size:17.40464592px;line-height:1.25;font-family:ISOCTEUR;-inkscape-font-specification:'ISOCTEUR, Italic';font-variant-ligatures:normal;font-variant-caps:normal;font-variant-numeric:normal;font-feature-settings:normal;text-align:start;letter-spacing:0px;word-spacing:0px;writing-mode:lr-tb;text-anchor:start;fill:#ffff00;fill-opacity:1;stroke:none;stroke-width:0.87273532"
           d="m 48.794995,17.081555 h -0.9828 q -0.498956,0 -0.372372,-0.597533 0.126587,-0.597532 0.625544,-0.597532 h 0.763564 l 2.268246,-3.141573 1.032828,-7.0164805 q 0.126584,-0.5975321 0.617979,-0.5975321 0.46872,0 0.389522,0.5522661 L 52.363142,11.015695 56.391,5.4206176 q 0.205015,-0.2897132 0.499851,-0.2897132 0.196562,0 0.301842,0.1810703 0.11476,0.1720178 0.06489,0.4074088 -0.03836,0.18107 -0.144661,0.3259259 L 49.330716,16.800896 q -0.203092,0.280659 -0.535731,0.280659 z" />
        <path
           inkscape:connector-curvature="0"
           id="path851"
           style="font-style:italic;font-variant:normal;font-weight:normal;font-stretch:normal;font-size:17.40464592px;line-height:1.25;font-family:ISOCTEUR;-inkscape-font-specification:'ISOCTEUR, Italic';font-variant-ligatures:normal;font-variant-caps:normal;font-variant-numeric:normal;font-feature-settings:normal;text-align:start;letter-spacing:0px;word-spacing:0px;writing-mode:lr-tb;text-anchor:start;fill:#ffff00;fill-opacity:1;stroke:none;stroke-width:0.87273532"
           d="M 27.476234,5.677125 Q 27.670411,5.2244488 28.05597,5.2244488 h 2.721591 q 0.657719,0 0.999963,0.5613191 0.344164,0.552264 0.1773,1.3399212 -0.0537,0.2534978 -0.15649,0.4888899 l -1.560872,3.585195 q -0.725263,1.674902 -1.807794,2.145684 -0.558303,0.244445 -1.306741,0.244445 h -2.063874 l -1.368612,3.141572 q -0.19226,0.443624 -0.570259,0.443624 -0.188999,0 -0.309399,-0.181072 -0.122318,-0.172016 -0.07437,-0.398353 0.01726,-0.08149 0.06104,-0.181072 z m 0.712123,0.7423891 -2.611533,5.9753239 h 2.071433 q 1.043277,0 1.561048,-1.195064 L 30.762617,7.614579 Q 30.865404,7.3791869 30.9076,7.1800099 31.068709,6.4195141 30.259792,6.4195141 Z" />
      </g>
    </g>
    <path
       style="font-style:normal;font-variant:normal;font-weight:normal;font-stretch:normal;font-size:23.83288002px;line-height:1.25;font-family:ISOCTEUR;-inkscape-font-specification:'ISOCTEUR, Normal';font-variant-ligatures:normal;font-variant-caps:normal;font-variant-numeric:normal;font-feature-settings:normal;text-align:start;letter-spacing:0px;word-spacing:0px;writing-mode:lr-tb;text-anchor:start;display:inline;fill:#999999;fill-opacity:1;stroke:none;stroke-width:0.26458332"
       d="m 62.541748,1.7267669 c -1.06286,0 -1.970296,0.376079 -2.722829,1.128615 -0.744779,0.744776 -1.117246,1.6486002 -1.117246,2.711461 v 7.6806681 c 0,1.062858 0.372467,1.970297 1.117246,2.722833 0.752533,0.744775 1.659969,1.117243 2.722829,1.117243 h 3.072165 c 0.512035,0 0.768429,-0.255876 0.768429,-0.767911 0,-0.512035 -0.256394,-0.76843 -0.768429,-0.76843 h -3.072165 c -0.636164,0 -1.178869,-0.224924 -1.628841,-0.674893 -0.449969,-0.449969 -0.675409,-0.992677 -0.675409,-1.628842 V 5.5668429 c 0,-0.6361649 0.221313,-1.1793889 0.663524,-1.629357 0.449969,-0.449969 0.996807,-0.672394 1.640726,-0.674894 l 5.939174,-0.02326 V 16.319671 c 0,0.512035 0.255878,0.767911 0.767911,0.767911 0.512029,0 0.767913,-0.255876 0.76791,-0.767911 V 9.4069179 h 6.14432 v 6.9127581 c 0,0.512035 0.256387,0.767911 0.768424,0.767911 0.0585,0 0.11252,-0.0042 0.16433,-0.01085 h 3.356882 c 0.0518,0.0067 0.10584,0.01085 0.164327,0.01085 0.37239,0 0.616907,-0.174369 0.733287,-0.523481 l 1.105354,-3.316595 h 5.539699 l 1.10536,3.316595 c 0.0378,0.113427 0.0907,0.206094 0.155549,0.28267 0.006,0.0076 0.0118,0.01606 0.0186,0.02325 0.125481,0.135618 0.298389,0.20673 0.517281,0.214974 v 0.0015 h 0.02529 c 0.006,8.5e-5 0.0108,10e-4 0.01651,10e-4 0.006,0 0.01,-9.79e-4 0.0155,-10e-4 h 0.0491 3.11196 0.100769 c 0.005,6.1e-5 0.01,10e-4 0.0155,10e-4 0.51204,0 0.767911,-0.255876 0.767911,-0.767911 V 3.2625919 h 2.690788 V 16.319676 c 0,0.512035 0.255881,0.767911 0.767911,0.767911 0.51204,0 0.767921,-0.255876 0.767921,-0.767911 V 5.450571 l 6.237854,11.25306 c 0.13965,0.256016 0.36457,0.383956 0.6749,0.383956 0.51203,0 0.76791,-0.255876 0.76791,-0.767911 V 2.4946779 c 2e-5,-0.512032 -0.25586,-0.767911 -0.7679,-0.767911 -0.51203,0 -0.76842,0.255879 -0.76843,0.767911 V 13.351898 L 98.061436,2.1804859 c -0.17068,-0.302565 -0.407471,-0.453719 -0.710041,-0.453719 -0.0359,0 -0.0674,0.0042 -0.100758,0.0067 v -0.0067 h -0.129202 -3.77082 -0.129199 v 0.0062 c -0.0321,-0.0023 -0.0622,-0.0062 -0.0966,-0.0062 -0.512032,0 -0.76791,0.255879 -0.76791,0.767911 V 15.550731 H 90.390097 L 85.980056,2.3200139 c -0.13189,-0.395664 -0.384162,-0.593247 -0.75655,-0.593247 -0.372391,0 -0.628271,0.205322 -0.767911,0.616501 L 80.060022,15.540912 H 77.697394 V 2.4946779 c 0,-0.512032 -0.25588,-0.767911 -0.767907,-0.767911 -0.512037,0 -0.768424,0.255879 -0.768424,0.767911 V 7.871096 h -6.14432 V 2.4946779 c 3e-6,-0.425574 -0.179588,-0.671761 -0.533299,-0.743622 -0.01035,-0.01559 -0.04712,-0.02429 -0.12764,-0.02429 h -0.106971 z m 22.681758,3.2116901 2.257748,6.772714 h -4.51548 z"
       id="path5354"
       inkscape:connector-curvature="0" />
  </g>
</svg>
