<?xml version="1.0" encoding="UTF-8" standalone="no"?>
<!-- Created with Inkscape (http://www.inkscape.org/) -->

<svg
   xmlns:dc="http://purl.org/dc/elements/1.1/"
   xmlns:cc="http://creativecommons.org/ns#"
   xmlns:rdf="http://www.w3.org/1999/02/22-rdf-syntax-ns#"
   xmlns:svg="http://www.w3.org/2000/svg"
   xmlns="http://www.w3.org/2000/svg"
   xmlns:sodipodi="http://sodipodi.sourceforge.net/DTD/sodipodi-0.dtd"
   xmlns:inkscape="http://www.inkscape.org/namespaces/inkscape"
   width="100.29362mm"
   height="18.814354mm"
   viewBox="0 0 100.29362 18.814354"
   version="1.1"
   id="svg8"
   inkscape:version="0.92.3 (2405546, 2018-03-11)"
   sodipodi:docname="SpeedyCHAIN logo.svg"
   inkscape:export-filename="C:\Users\Eduardo Arruda\Documents\OneDrive - PUCRS - BR\Doutorado\CONSEG\Identidade Visual\SpeedyCHAIN logo.png"
   inkscape:export-xdpi="128"
   inkscape:export-ydpi="128">
  <defs
     id="defs2">
    <filter
       style="color-interpolation-filters:sRGB"
       inkscape:label="Cross Blur"
       id="filter9887">
      <feColorMatrix
         in="SourceGraphic"
         values="1 0 0 0 0 0 1 0 0 0 0 0 1 0 0 -0.2125 -0.7154 -0.0721 1 0 "
         result="colormatrix"
         id="feColorMatrix9877" />
      <feComposite
         in="SourceGraphic"
         in2="colormatrix"
         operator="arithmetic"
         k2="1"
         k3="0"
         k4="0"
         result="composite"
         id="feComposite9879"
         k1="0" />
      <feGaussianBlur
         stdDeviation="5 0.01"
         result="blur1"
         id="feGaussianBlur9881" />
      <feGaussianBlur
         in="composite"
         stdDeviation="0.01 0.01"
         result="blur2"
         id="feGaussianBlur9883" />
      <feBlend
         in="blur2"
         in2="blur1"
         mode="multiply"
         result="blend"
         id="feBlend9885" />
    </filter>
  </defs>
  <sodipodi:namedview
     id="base"
     pagecolor="#ffffff"
     bordercolor="#666666"
     borderopacity="1.0"
     inkscape:pageopacity="0.0"
     inkscape:pageshadow="2"
     inkscape:zoom="2.8284271"
     inkscape:cx="87.669201"
     inkscape:cy="59.948802"
     inkscape:document-units="mm"
     inkscape:current-layer="layer1"
     showgrid="false"
     inkscape:snap-text-baseline="false"
     inkscape:window-width="2048"
     inkscape:window-height="1099"
     inkscape:window-x="1012"
     inkscape:window-y="445"
     inkscape:window-maximized="1"
     fit-margin-top="0"
     fit-margin-left="0"
     fit-margin-right="0"
     fit-margin-bottom="0" />
  <metadata
     id="metadata5">
    <rdf:RDF>
      <cc:Work
         rdf:about="">
        <dc:format>image/svg+xml</dc:format>
        <dc:type
           rdf:resource="http://purl.org/dc/dcmitype/StillImage" />
        <dc:title />
      </cc:Work>
    </rdf:RDF>
  </metadata>
  <g
     inkscape:label="Camada 1"
     inkscape:groupmode="layer"
     id="layer1"
     transform="translate(-22.781555,-77.385457)">
    <g
       id="g9912">
      <path
         transform="scale(0.26458333)"
         inkscape:connector-curvature="0"
         id="rect825"
         d="M 120.51758,292.48047 86.103516,363.58984 H 465.16602 v -71.10937 z"
         style="opacity:1;fill:#ff0000;fill-opacity:1;stroke:none;stroke-width:0.97821742;stroke-linejoin:round;stroke-miterlimit:4;stroke-dasharray:none;stroke-dashoffset:0;stroke-opacity:1" />
      <g
         transform="matrix(1,0,0,0.94769278,-11.112501,4.539993)"
         style="stroke-width:1.02722657;filter:url(#filter9887)"
         id="g9776">
        <path
           inkscape:connector-curvature="0"
           id="path849"
           style="font-style:italic;font-variant:normal;font-weight:normal;font-stretch:normal;font-size:17.40464592px;line-height:1.25;font-family:ISOCTEUR;-inkscape-font-specification:'ISOCTEUR, Italic';font-variant-ligatures:normal;font-variant-caps:normal;font-variant-numeric:normal;font-feature-settings:normal;text-align:start;letter-spacing:0px;word-spacing:0px;writing-mode:lr-tb;text-anchor:start;fill:#ffffff;fill-opacity:1;stroke:none;stroke-width:0.96696359"
           d="m 51.363823,84.136719 q -0.626024,-0.496768 -1.91122,-0.496768 -0.408239,0 -0.783521,0.363023 -0.365804,0.35347 -0.469374,0.869343 -0.0959,0.477661 0.139819,0.659173 l 1.836659,1.432983 q 0.758043,0.592301 0.564329,1.557176 -0.295367,1.471197 -1.556508,2.292774 -0.607836,0.391682 -1.310914,0.391682 -1.315436,0 -2.691143,-0.716492 -0.218905,-0.114638 -0.132596,-0.544534 0.05179,-0.257936 0.231866,-0.439447 0.189558,-0.191065 0.393678,-0.191065 0.10584,0 0.213374,0.06687 0.877197,0.563639 2.502592,0.563639 0.38556,0 0.772237,-0.382128 0.394239,-0.38213 0.492055,-0.869343 0.08823,-0.439449 -0.30964,-0.754706 l -1.666951,-1.29924 q -0.758043,-0.5923 -0.535559,-1.700474 0.285777,-1.42343 1.54489,-2.197242 0.60208,-0.363022 1.282478,-0.363022 1.300316,0 2.218478,0.773811 0.154588,0.133745 0.08362,0.487214 -0.05179,0.257937 -0.241343,0.449001 -0.180082,0.181512 -0.384201,0.181512 -0.1134,0 -0.283107,-0.133745 z" />
        <path
           inkscape:connector-curvature="0"
           id="path851"
           style="font-style:italic;font-variant:normal;font-weight:normal;font-stretch:normal;font-size:17.40464592px;line-height:1.25;font-family:ISOCTEUR;-inkscape-font-specification:'ISOCTEUR, Italic';font-variant-ligatures:normal;font-variant-caps:normal;font-variant-numeric:normal;font-feature-settings:normal;text-align:start;letter-spacing:0px;word-spacing:0px;writing-mode:lr-tb;text-anchor:start;fill:#ffffff;fill-opacity:1;stroke:none;stroke-width:0.96696359"
           d="m 54.284581,82.856587 q 0.194177,-0.477661 0.579736,-0.477661 h 2.721591 q 0.657719,0 0.999963,0.5923 0.344164,0.582746 0.1773,1.413877 -0.0537,0.26749 -0.15649,0.515874 l -1.560872,3.783077 q -0.725263,1.767347 -1.807794,2.264114 -0.558303,0.257937 -1.306741,0.257937 H 51.8674 l -1.368612,3.314969 q -0.19226,0.468109 -0.570259,0.468109 -0.188999,0 -0.309399,-0.191066 -0.122318,-0.18151 -0.07437,-0.42034 0.01726,-0.08599 0.06104,-0.191066 z m 0.712123,0.783364 -2.611533,6.305128 h 2.071433 q 1.043277,0 1.561048,-1.261025 l 1.553312,-3.783077 q 0.102787,-0.248384 0.144983,-0.458555 0.161109,-0.802471 -0.647808,-0.802471 z" />
        <path
           inkscape:connector-curvature="0"
           id="path853"
           style="font-style:italic;font-variant:normal;font-weight:normal;font-stretch:normal;font-size:17.40464592px;line-height:1.25;font-family:ISOCTEUR;-inkscape-font-specification:'ISOCTEUR, Italic';font-variant-ligatures:normal;font-variant-caps:normal;font-variant-numeric:normal;font-feature-settings:normal;text-align:start;letter-spacing:0px;word-spacing:0px;writing-mode:lr-tb;text-anchor:start;fill:#ffffff;fill-opacity:1;stroke:none;stroke-width:0.96696359"
           d="m 63.545531,85.53149 q 0.165633,-0.410788 0.223172,-0.697385 0.239746,-1.194154 -0.984971,-1.194154 -1.542235,0 -2.330232,1.891539 l -0.262666,0.630513 h 3.099591 z m 1.035716,0 -0.780436,1.891539 h -4.127747 l -0.517771,1.261025 q -0.102787,0.248384 -0.144982,0.458555 -0.161109,0.80247 0.647809,0.80247 h 2.449432 q 0.498959,0 0.372373,0.630513 -0.126586,0.630513 -0.625545,0.630513 h -2.714032 q -0.650158,0 -0.999962,-0.592299 -0.342245,-0.592301 -0.1773,-1.413878 0.0537,-0.26749 0.15649,-0.515874 l 1.298207,-3.152564 q 0.696717,-1.700474 1.59848,-2.426519 0.901763,-0.726045 2.292799,-0.726045 1.330556,0 1.518916,1.509409 0.05722,0.468109 -0.0406,0.955323 -0.07288,0.363022 -0.206134,0.687832 z" />
        <path
           inkscape:connector-curvature="0"
           id="path855"
           style="font-style:italic;font-variant:normal;font-weight:normal;font-stretch:normal;font-size:17.40464592px;line-height:1.25;font-family:ISOCTEUR;-inkscape-font-specification:'ISOCTEUR, Italic';font-variant-ligatures:normal;font-variant-caps:normal;font-variant-numeric:normal;font-feature-settings:normal;text-align:start;letter-spacing:0px;word-spacing:0px;writing-mode:lr-tb;text-anchor:start;fill:#ffffff;fill-opacity:1;stroke:none;stroke-width:0.96696359"
           d="m 69.760113,85.53149 q 0.165633,-0.410788 0.223172,-0.697385 0.239746,-1.194154 -0.98497,-1.194154 -1.542235,0 -2.330233,1.891539 l -0.262665,0.630513 h 3.09959 z m 1.035717,0 -0.780436,1.891539 h -4.127747 l -0.517772,1.261025 q -0.102787,0.248384 -0.144982,0.458555 -0.161109,0.80247 0.647808,0.80247 h 2.449433 q 0.498959,0 0.372373,0.630513 -0.126586,0.630513 -0.625545,0.630513 h -2.71403 q -0.650158,0 -0.999963,-0.592299 -0.342244,-0.592301 -0.177299,-1.413878 0.0537,-0.26749 0.15649,-0.515874 l 1.298206,-3.152564 q 0.696718,-1.700474 1.598481,-2.426519 0.901763,-0.726045 2.292799,-0.726045 1.330555,0 1.518916,1.509409 0.05722,0.468109 -0.0406,0.955323 -0.07288,0.363022 -0.206124,0.687832 z" />
        <path
           inkscape:connector-curvature="0"
           id="path857"
           style="font-style:italic;font-variant:normal;font-weight:normal;font-stretch:normal;font-size:17.40464592px;line-height:1.25;font-family:ISOCTEUR;-inkscape-font-specification:'ISOCTEUR, Italic';font-variant-ligatures:normal;font-variant-caps:normal;font-variant-numeric:normal;font-feature-settings:normal;text-align:start;letter-spacing:0px;word-spacing:0px;writing-mode:lr-tb;text-anchor:start;fill:#ffffff;fill-opacity:1;stroke:none;stroke-width:0.96696359"
           d="m 74.185235,91.206105 h -2.714031 q -0.665278,0 -1.007523,-0.592299 -0.334685,-0.592301 -0.167822,-1.423431 0.05178,-0.257937 0.154572,-0.506321 l 1.560873,-3.783077 q 0.561549,-1.366112 1.298463,-1.948858 0.712316,-0.573193 1.808512,-0.573193 h 2.071434 l 1.361053,-3.314969 q 0.184701,-0.468109 0.577819,-0.468109 0.498959,0 0.37429,0.620961 -0.02302,0.114638 -0.05156,0.181511 l -4.686342,11.330124 q -0.201738,0.477661 -0.579738,0.477661 z m 0.415274,-7.566154 q -1.043277,0 -1.561048,1.261026 l -1.560873,3.783077 q -0.102787,0.248384 -0.143064,0.449002 -0.163027,0.812023 0.65345,0.812023 h 2.071434 l 2.603974,-6.305128 z" />
        <path
           inkscape:connector-curvature="0"
           id="path859"
           style="font-style:italic;font-variant:normal;font-weight:normal;font-stretch:normal;font-size:17.40464592px;line-height:1.25;font-family:ISOCTEUR;-inkscape-font-specification:'ISOCTEUR, Italic';font-variant-ligatures:normal;font-variant-caps:normal;font-variant-numeric:normal;font-feature-settings:normal;text-align:start;letter-spacing:0px;word-spacing:0px;writing-mode:lr-tb;text-anchor:start;fill:#ffffff;fill-opacity:1;stroke:none;stroke-width:0.96696359"
           d="m 75.603342,94.989183 h -0.9828 q -0.498957,0 -0.372371,-0.630513 0.126586,-0.630513 0.625543,-0.630513 h 0.763563 l 2.268246,-3.314969 1.032828,-7.40375 q 0.126585,-0.630512 0.61798,-0.630512 0.46872,0 0.389523,0.582747 l -0.774366,5.626849 4.02786,-5.903893 q 0.205015,-0.305703 0.499849,-0.305703 0.196561,0 0.301843,0.191064 0.114761,0.181512 0.06489,0.429895 -0.03836,0.191064 -0.144657,0.343916 l -7.782211,11.349232 q -0.203088,0.29615 -0.535729,0.29615 z" />
      </g>
      <path
         inkscape:connector-curvature="0"
         id="path5354"
         d="m 78.237593,79.112224 c -1.06286,0 -1.970296,0.376079 -2.722829,1.128615 -0.744779,0.744776 -1.117246,1.6486 -1.117246,2.711461 v 7.680668 c 0,1.062858 0.372467,1.970297 1.117246,2.722833 0.752533,0.744775 1.659969,1.117243 2.722829,1.117243 h 3.072165 c 0.512035,0 0.768429,-0.255876 0.768429,-0.767911 0,-0.512035 -0.256394,-0.76843 -0.768429,-0.76843 h -3.072165 c -0.636164,0 -1.178869,-0.224924 -1.628841,-0.674893 -0.449969,-0.449969 -0.675409,-0.992677 -0.675409,-1.628842 V 82.9523 c 0,-0.636165 0.221313,-1.179389 0.663524,-1.629357 0.449969,-0.449969 0.996807,-0.672394 1.640726,-0.674894 l 5.939174,-0.02326 v 13.080339 c 0,0.512035 0.255878,0.767911 0.767911,0.767911 0.512029,0 0.767913,-0.255876 0.76791,-0.767911 v -6.912753 h 6.14432 v 6.912758 c 0,0.512035 0.256387,0.767911 0.768424,0.767911 0.0585,0 0.11252,-0.0042 0.16433,-0.01085 h 3.356882 c 0.0518,0.0067 0.10584,0.01085 0.164327,0.01085 0.37239,0 0.616907,-0.174369 0.733287,-0.523481 l 1.105354,-3.316595 h 5.539698 l 1.10536,3.316595 c 0.0378,0.113427 0.0907,0.206094 0.15555,0.28267 0.006,0.0076 0.0118,0.01606 0.0186,0.02325 0.12548,0.135618 0.29839,0.20673 0.51728,0.214974 v 0.0015 h 0.0253 c 0.006,8.5e-5 0.0108,10e-4 0.0165,10e-4 0.006,0 0.01,-9.74e-4 0.0155,-10e-4 h 0.0491 3.11196 0.10077 c 0.005,6.1e-5 0.01,10e-4 0.0155,10e-4 0.51204,0 0.76791,-0.255876 0.76791,-0.767911 V 80.648049 h 2.69079 v 13.057084 c 0,0.512035 0.25588,0.767911 0.76791,0.767911 0.51204,0 0.76792,-0.255876 0.76792,-0.767911 V 82.836028 l 6.23786,11.25306 c 0.13965,0.256016 0.36457,0.383956 0.67489,0.383956 0.51204,0 0.76792,-0.255876 0.76792,-0.767911 V 79.880135 c 0,-0.512032 -0.25588,-0.767911 -0.76792,-0.767911 -0.51203,0 -0.76842,0.255879 -0.76843,0.767911 v 10.85722 l -6.2022,-11.171412 c -0.17068,-0.302565 -0.40747,-0.453719 -0.71004,-0.453719 -0.0359,0 -0.0674,0.0042 -0.10076,0.0067 v -0.0067 h -0.1292 -3.77082 -0.1292 v 0.0062 c -0.0321,-0.0023 -0.0622,-0.0062 -0.0966,-0.0062 -0.51203,0 -0.76791,0.255879 -0.76791,0.767911 v 13.056053 h -1.96681 L 101.6759,79.705471 c -0.13189,-0.395664 -0.38416,-0.593247 -0.75655,-0.593247 -0.37239,0 -0.62827,0.205322 -0.76791,0.616501 L 95.755867,92.926369 H 93.393239 V 79.880135 c 0,-0.512032 -0.25588,-0.767911 -0.767907,-0.767911 -0.512037,0 -0.768424,0.255879 -0.768424,0.767911 v 5.376418 h -6.14432 v -5.376418 c 3e-6,-0.425574 -0.179588,-0.671761 -0.533299,-0.743622 -0.01035,-0.01559 -0.04712,-0.02429 -0.12764,-0.02429 h -0.106971 z m 22.681757,3.21169 2.25775,6.772714 h -4.515481 z"
         style="font-style:normal;font-variant:normal;font-weight:normal;font-stretch:normal;font-size:23.83288002px;line-height:1.25;font-family:ISOCTEUR;-inkscape-font-specification:'ISOCTEUR, Normal';font-variant-ligatures:normal;font-variant-caps:normal;font-variant-numeric:normal;font-feature-settings:normal;text-align:start;letter-spacing:0px;word-spacing:0px;writing-mode:lr-tb;text-anchor:start;fill:#ffffff;fill-opacity:1;stroke:none;stroke-width:0.26458332" />
    </g>
  </g>
</svg>
